<svg width="50" height="50" viewBox="0 0 50 50" fill="none" xmlns="http://www.w3.org/2000/svg">
<mask id="mask0" mask-type="alpha" maskUnits="userSpaceOnUse" x="0" y="0" width="50" height="50">
<path d="M25 50C38.8071 50 50 38.8071 50 25C50 11.1929 38.8071 0 25 0C11.1929 0 0 11.1929 0 25C0 38.8071 11.1929 50 25 50Z" fill="#FFEDD8"/>
</mask>
<g mask="url(#mask0)">
<path d="M19.9649 24.8589C19.9649 25.9991 19.0926 26.9255 18.0189 26.9255C16.9453 26.9255 16.0729 25.9991 16.0729 24.8589V23.024C16.0729 21.8838 16.9453 20.9574 18.0189 20.9574C19.0926 20.9574 19.9649 21.8838 19.9649 23.024V24.8589Z" fill="#FBB36B"/>
<path d="M29.8795 24.8589C29.8795 25.9991 30.7519 26.9255 31.8256 26.9255C32.8992 26.9255 33.7716 25.9991 33.7716 24.8589V23.024C33.7716 21.8838 32.8992 20.9574 31.8256 20.9574C30.7519 20.9574 29.8795 21.8838 29.8795 23.024V24.8589Z" fill="#FBB36B"/>
<path d="M36.6739 37.4009C34.3756 34.5504 28.1349 33.7488 24.8636 33.6597V33.6419C24.7629 33.6419 24.6623 33.6419 24.5616 33.6419C24.461 33.6419 24.3435 33.6419 24.2596 33.6419V33.6597C20.9715 33.7488 14.7308 34.5683 12.4493 37.4009C10 40.4295 10 50.21 10 50.21H39.14C39.1064 50.1922 39.1064 40.4295 36.6739 37.4009Z" fill="#2A3B8F"/>
<path d="M24.9809 37.8284C27.2625 37.8284 29.1246 36.4745 29.1246 34.7998C29.1246 34.5504 29.0743 34.301 28.9904 34.0516C27.447 33.8022 25.9707 33.6775 24.8467 33.6418V33.624C24.7461 33.624 24.6454 33.624 24.5448 33.624C24.4441 33.624 24.3267 33.624 24.2428 33.624V33.6418C23.3537 33.6597 22.2297 33.7487 21.0386 33.9091C20.9211 34.1941 20.8373 34.4792 20.8373 34.7998C20.8373 36.4745 22.6994 37.8284 24.9809 37.8284Z" fill="#1D76BB"/>
<path d="M26.7425 35.0493C26.7425 35.0493 26.0882 37.1158 24.9139 37.1158C23.7396 37.1158 22.9679 35.0493 22.9679 35.0493V31.6109H26.7425V35.0493Z" fill="#FBB36B"/>
<path d="M18.6229 25.5716C18.6229 25.5716 16.7272 18.0714 16.442 14.7934C16.1736 11.5154 16.1736 9.21721 16.9789 9.12814C17.8009 9.03906 18.4216 9.12814 18.4216 9.12814C18.4216 9.12814 19.965 6.43804 26.3902 6.0461C32.8154 5.65417 34.1742 7.77418 33.9897 11.9073C33.8051 16.0404 31.7249 24.5027 31.5404 25.1796C31.3894 25.8566 18.6229 25.5716 18.6229 25.5716Z" fill="#3C362D"/>
<path d="M24.9139 13.1544L18.1196 14.5618C18.1196 14.5618 18.1196 20.1736 18.1196 26.6939C18.1196 33.2143 24.9139 32.8402 24.9139 32.8402C24.9139 32.8402 31.7082 33.2143 31.7082 26.6939C31.7082 20.1736 31.7082 14.5618 31.7082 14.5618L24.9139 13.1544Z" fill="#FECE8B"/>
<path d="M26.5076 26.8543C26.5076 26.8543 25.6856 25.8922 25.0985 25.8922C24.5113 25.8922 23.7396 26.7652 23.7396 26.7652C23.7396 26.7652 24.2429 27.7807 25.1488 27.7807C26.0547 27.7807 26.5076 26.8543 26.5076 26.8543Z" fill="#FBB36B"/>
<path d="M27.8161 22.543C28.0199 22.543 28.1852 22.1442 28.1852 21.6522C28.1852 21.1603 28.0199 20.7615 27.8161 20.7615C27.6123 20.7615 27.447 21.1603 27.447 21.6522C27.447 22.1442 27.6123 22.543 27.8161 22.543Z" fill="#3C362D"/>
<path d="M22.5652 21.6522C22.5652 22.151 22.3974 22.543 22.1961 22.543C21.9948 22.543 21.827 22.151 21.827 21.6522C21.827 21.1534 21.9948 20.7615 22.1961 20.7615C22.3974 20.7615 22.5652 21.1534 22.5652 21.6522Z" fill="#3C362D"/>
<path d="M28.8731 19.3719C28.8731 19.3719 28.4034 18.392 27.9001 18.4455C27.3633 18.4099 26.8767 19.2828 26.8767 19.3006C26.8096 19.4431 26.6419 19.4966 26.5077 19.4253C26.3735 19.3541 26.3231 19.1759 26.3902 19.0334C26.407 19.0156 26.8935 17.911 27.9001 17.8754C28.9234 17.9288 29.3429 19.1403 29.3764 19.1581C29.4435 19.3006 29.3764 19.4788 29.2422 19.5322C29.2086 19.55 29.1751 19.55 29.1415 19.55C29.0241 19.55 28.9234 19.4966 28.8731 19.3719Z" fill="#3C362D"/>
<path d="M23.2699 19.3719C23.2699 19.3719 22.8002 18.392 22.2969 18.4455C21.76 18.4099 21.2735 19.2828 21.2735 19.3006C21.2064 19.4431 21.0387 19.4966 20.9045 19.4253C20.7703 19.3541 20.7199 19.1759 20.787 19.0334C20.8038 19.0156 21.2903 17.911 22.2969 17.8754C23.3202 17.9288 23.7396 19.1403 23.7732 19.1581C23.8403 19.3006 23.7732 19.4788 23.639 19.5322C23.6054 19.55 23.5719 19.55 23.5383 19.55C23.4041 19.55 23.3035 19.4966 23.2699 19.3719Z" fill="#3C362D"/>
<path d="M22.0787 29.384C22.0451 29.3128 22.0619 29.2237 22.129 29.1881C22.1961 29.1524 22.28 29.1703 22.3135 29.2415C22.3303 29.2415 23.0349 30.5242 25.1487 30.5242C27.2457 30.5242 28.0677 29.0099 28.0677 29.0099C28.1013 28.9387 28.1851 28.9208 28.2522 28.9565C28.3194 28.9921 28.3361 29.0812 28.3026 29.1524C28.2858 29.1703 27.3967 30.8092 25.1487 30.8092C22.9175 30.8092 22.0955 29.4197 22.0787 29.384Z" fill="#3C362D"/>
<circle cx="25" cy="25" r="24.5" stroke="#E9A077"/>
</g>
</svg>
