<svg width="50" height="50" viewBox="0 0 50 50" fill="none" xmlns="http://www.w3.org/2000/svg">
<mask id="mask0" mask-type="alpha" maskUnits="userSpaceOnUse" x="0" y="0" width="50" height="50">
<path d="M25 50C38.8071 50 50 38.8071 50 25C50 11.1929 38.8071 0 25 0C11.1929 0 0 11.1929 0 25C0 38.8071 11.1929 50 25 50Z" fill="#FFEDD8"/>
</mask>
<g mask="url(#mask0)">
<path d="M18.3883 24.066C18.3883 25.3297 17.3627 26.3553 16.0989 26.3553C14.8352 26.3553 13.8095 25.3297 13.8095 24.066V22.1795C13.8095 20.9158 14.8352 19.8901 16.0989 19.8901C17.3627 19.8901 18.3883 20.9158 18.3883 22.1795V24.066Z" fill="#FBB36B"/>
<path d="M34.9634 12.6557C34.9634 12.6557 35.9707 19.9084 35.6594 25.7876C35.348 31.6484 33.6264 34.5971 33.6264 34.5971C33.6264 34.5971 30.8059 31.6667 24.1209 32.6191C17.4542 33.5714 16.8681 34.3773 16.8681 34.3773C16.8681 34.3773 14.7253 28.4066 14.7253 26.8498C14.7253 25.3114 16.4286 13.1319 16.4286 13.1319C16.4286 13.1319 17.6557 9.76191 19.6887 9.45055C21.7399 9.13919 34.9634 12.6557 34.9634 12.6557Z" fill="#353028"/>
<path d="M31.0989 25.9158C31.0989 27.1796 32.1246 28.2052 33.3883 28.2052C34.6521 28.2052 35.6777 27.1796 35.6777 25.9158V24.0294C35.6777 22.7656 34.6521 21.74 33.3883 21.74C32.1246 21.74 31.0989 22.7656 31.0989 24.0294V25.9158Z" fill="#FBB36B"/>
<path d="M34.1575 37.4177C30.0366 36.3921 26.4652 35.7694 25.2198 35.5679V35.4946C25.2198 35.4946 25.1282 35.5129 24.9817 35.5313C24.8352 35.5129 24.7436 35.4946 24.7436 35.4946V35.5679C23.5165 35.7694 19.9451 36.3921 15.8059 37.4177C10.6777 38.6998 10.8975 50.0001 10.8975 50.0001H39.0293C39.0659 50.0001 39.2674 38.6998 34.1575 37.4177Z" fill="#FECE8B"/>
<path d="M26.5018 32.2895L24.9634 31.9781L23.4249 32.2895C23.4249 32.2895 22.2528 35.4946 22.2528 36.8866C22.2528 38.2785 24.9817 38.9195 24.9817 38.9195C24.9817 38.9195 27.7106 38.2785 27.7106 36.8866C27.674 35.4946 26.5018 32.2895 26.5018 32.2895Z" fill="#FBB36B"/>
<path d="M14.6154 37.9855C14.8169 39.2126 15.1466 41.5203 15.1466 43.9562C15.1466 43.9562 14.1942 46.9049 14.1026 50.0001H35.6228C35.5312 46.9049 34.5788 43.9562 34.5788 43.9562C34.5788 41.4104 34.9451 39.0111 35.1466 37.8206C34.8352 37.6375 34.5055 37.491 34.1576 37.3994C33.4982 37.2346 32.8572 37.088 32.2345 36.9415C31.5568 42.1247 25.8975 43.0221 24.8718 43.1503C23.8462 43.0221 18.2052 42.143 17.5092 36.9965C16.9597 37.1247 16.4103 37.2529 15.8425 37.3994C15.3847 37.5276 14.9817 37.7474 14.6154 37.9855Z" fill="#6CA0CA"/>
<path d="M25 11.4835L16.1722 13.8095C16.1722 13.8095 16.1722 14.5604 16.1722 23.3333C16.1722 32.1062 25 35.2931 25 35.2931C25 35.2931 33.8279 32.1246 33.8279 23.3333C33.8279 14.5604 33.8279 13.8095 33.8279 13.8095L25 11.4835Z" fill="#FECE8B"/>
<path d="M32.033 14.359C32.033 14.359 34.0659 22.674 34.0659 22.8388C34.0659 23.0037 35.1831 14.359 35.0183 13.4432C34.8718 12.5458 32.033 14.359 32.033 14.359Z" fill="#3C362D"/>
<path d="M29.9817 22.1612C29.9817 22.8938 29.7253 23.4799 29.414 23.4799C29.1026 23.4799 28.8462 22.8938 28.8462 22.1612C28.8462 21.4286 29.1026 20.8425 29.414 20.8425C29.7253 20.8425 29.9817 21.4286 29.9817 22.1612Z" fill="#3C362D"/>
<path d="M21.1539 22.1612C21.1539 22.8938 20.8975 23.4799 20.5861 23.4799C20.2748 23.4799 20.0183 22.8938 20.0183 22.1612C20.0183 21.4286 20.2748 20.8425 20.5861 20.8425C20.8975 20.8425 21.1539 21.4286 21.1539 22.1612Z" fill="#3C362D"/>
<path d="M26.8132 28.5532L24.8901 27.1613L23.1868 28.3517C23.1868 28.3517 23.7912 29.5422 24.9268 29.4506C26.044 29.3591 26.8132 28.5532 26.8132 28.5532Z" fill="#FBB36B"/>
<path d="M16.5568 44.3041L15.1099 37.6375C15.1099 37.6375 12.1246 38.8096 10.4213 43.132C10.4213 43.132 11.4835 46.392 15.0183 46.392L16.5568 44.3041Z" fill="#6CA0CA"/>
<path d="M33.4249 44.3041L34.8718 37.6375C34.8718 37.6375 37.8572 38.8096 39.5605 43.132C39.5605 43.132 38.4982 46.392 34.9634 46.392L33.4249 44.3041Z" fill="#6CA0CA"/>
<path d="M24.8901 38.1686C22.0879 38.1686 21.337 35.9707 21.3187 35.9524L21.7216 35.8059C21.7399 35.8059 22.3443 37.7473 24.8718 37.7473C27.4176 37.7473 27.9121 35.9707 27.9304 35.9707L28.3333 36.099C28.3333 36.1173 27.674 38.1686 24.8901 38.1686Z" fill="#625E5B"/>
<path d="M22.2711 31.4469C22.2711 31.4469 25.0916 31.1356 26.0623 31.1356C27.0147 31.1356 27.8205 31.3553 27.8205 31.3553C27.8205 31.3553 26.1722 30.348 25.8425 30.348C25.5312 30.348 24.8352 30.8242 24.8352 30.8242C24.8352 30.8242 24.4139 30.5495 23.9194 30.5495C23.4432 30.5312 22.2711 31.4469 22.2711 31.4469Z" fill="#F04B3A"/>
<path d="M23.6081 31.9781C23.6081 31.9781 24.6703 32.5092 25.5861 32.2528C26.5018 31.9781 27.0879 31.7766 27.0879 31.7766L23.6081 31.9781Z" fill="#F04B3A"/>
<path d="M18.1136 20.6044C18.1136 20.6044 19.3407 19.5971 20.2015 19.5971C21.0623 19.5971 21.5934 19.8168 21.9048 19.8168C22.2162 19.8168 22.2711 19.4505 22.2711 19.4505C22.2711 19.4505 20.403 18.0403 18.1136 20.6044Z" fill="#3C362D"/>
<path d="M32.1979 20.6044C32.1979 20.6044 30.9707 19.5971 30.1099 19.5971C29.2491 19.5971 28.718 19.8168 28.4066 19.8168C28.0953 19.8168 28.0403 19.4505 28.0403 19.4505C28.0403 19.4505 29.9085 18.0403 32.1979 20.6044Z" fill="#3C362D"/>
<path d="M17.7839 22.5825C17.7839 21.044 19.0293 19.8169 20.5678 19.7986C22.1063 19.7986 23.3334 21.044 23.3334 22.5825C23.3334 24.1209 22.0879 25.348 20.5678 25.3664C19.0293 25.348 17.7839 24.1209 17.7839 22.5825ZM18.2235 22.5825C18.2235 23.8828 19.2674 24.9268 20.5678 24.9268C21.8682 24.9268 22.9121 23.8828 22.9121 22.5825C22.9121 21.2821 21.8682 20.2381 20.5678 20.2381C19.2674 20.2381 18.2235 21.2821 18.2235 22.5825Z" fill="#3C362D"/>
<path d="M26.6484 22.5825C26.6484 21.044 27.8938 19.8169 29.4139 19.7986C30.9524 19.7986 32.1978 21.044 32.1978 22.5825C32.1978 24.1209 30.9524 25.348 29.4139 25.3664C27.8938 25.348 26.6484 24.1209 26.6484 22.5825ZM27.0696 22.5825C27.0696 23.8828 28.1136 24.9268 29.4139 24.9268C30.7143 24.9268 31.7583 23.8828 31.7583 22.5825C31.7583 21.2821 30.7143 20.2381 29.4139 20.2381C28.1319 20.2381 27.0696 21.2821 27.0696 22.5825Z" fill="#3C362D"/>
<path d="M23.1319 22.8022V22.3627H26.6484V22.8022H23.1319Z" fill="#3C362D"/>
<path d="M15.9707 21.1173L16.2088 20.7693L18.077 22.033L17.8389 22.381L15.9707 21.1173Z" fill="#3C362D"/>
<path d="M32.033 22.033L33.8828 20.7693L34.1209 21.1173L32.2711 22.381L32.033 22.033Z" fill="#3C362D"/>
<path d="M18.2784 35.7693C18.2784 35.7693 16.8315 29.3224 16.74 22.9671C16.6301 16.6118 17.4909 14.4323 17.4909 14.4323C17.4909 14.4323 17.9121 17.1979 17.8022 17.4726C17.6923 17.7473 21.6484 17.8938 27.033 16.4103C32.4176 14.9085 33.8279 13.8279 33.8279 13.8279L30.8242 16.1905C30.8242 16.1905 34.7253 14.5971 35.0367 13.4616C35.348 12.3444 32.7473 5.7876 24.7986 5.7876C16.8499 5.7876 13.0037 11.6118 12.3077 19.9268C11.6118 28.2418 13.1136 32.9488 13.1136 32.9488L18.2784 35.7693Z" fill="#3C362D"/>
<circle cx="25" cy="25" r="24.5" stroke="#E9A077"/>
</g>
</svg>
