<svg width="24" height="24" viewBox="0 0 24 24" fill="none" xmlns="http://www.w3.org/2000/svg">
<g id="contact_support_24px">
<path id="icon/action/contact_support_24px" fill-rule="evenodd" clip-rule="evenodd" d="M11.5 19.695V23.295L12.93 22.605C18.06 20.135 21.5 15.155 21.5 10.205C21.5 4.965 17.24 0.705002 12 0.705002C6.76 0.705002 2.5 4.965 2.5 10.205C2.5 15.275 6.49 19.435 11.5 19.695ZM4.5 10.205C4.5 6.065 7.86 2.705 12 2.705C16.14 2.705 19.5 6.065 19.5 10.205C19.5 13.925 17.14 17.705 13.5 20.005V17.705H12C7.86 17.705 4.5 14.345 4.5 10.205ZM13 14.205V16.205H11V14.205H13ZM12.7704 9.52668C11.9421 10.1616 11 10.8837 11 12.705H13C13 11.6096 13.711 10.9883 14.4408 10.3505C15.21 9.67832 16 8.98792 16 7.705C16 5.495 14.21 3.705 12 3.705C9.79 3.705 8 5.495 8 7.705H10C10 6.605 10.9 5.705 12 5.705C13.1 5.705 14 6.605 14 7.705C14 8.58422 13.4202 9.02861 12.7704 9.52668Z" fill="black" fill-opacity="0.54"/>
</g>
</svg>
