<svg width="24" height="24" viewBox="0 0 24 24" fill="none" xmlns="http://www.w3.org/2000/svg">
<g id="Settings">
<path id="icon/action/settings_24px" fill-rule="evenodd" clip-rule="evenodd" d="M19.5022 12C19.5022 12.34 19.4722 12.66 19.4322 12.98L21.5422 14.63C21.7322 14.78 21.7822 15.05 21.6622 15.27L19.6622 18.73C19.5722 18.89 19.4022 18.98 19.2322 18.98C19.1722 18.98 19.1122 18.97 19.0522 18.95L16.5622 17.95C16.0422 18.34 15.4822 18.68 14.8722 18.93L14.4922 21.58C14.4622 21.82 14.2522 22 14.0022 22H10.0022C9.75221 22 9.54221 21.82 9.51221 21.58L9.13221 18.93C8.52221 18.68 7.96221 18.35 7.44221 17.95L4.95221 18.95C4.90221 18.97 4.84221 18.98 4.78221 18.98C4.60221 18.98 4.43221 18.89 4.34221 18.73L2.34221 15.27C2.22221 15.05 2.27221 14.78 2.46221 14.63L4.57221 12.98C4.53221 12.66 4.50221 12.33 4.50221 12C4.50221 11.67 4.53221 11.34 4.57221 11.02L2.46221 9.37C2.27221 9.22 2.21221 8.95 2.34221 8.73L4.34221 5.27C4.43221 5.11 4.60221 5.02 4.77221 5.02C4.83221 5.02 4.89221 5.03 4.95221 5.05L7.44221 6.05C7.96221 5.66 8.52221 5.32 9.13221 5.07L9.51221 2.42C9.54221 2.18 9.75221 2 10.0022 2H14.0022C14.2522 2 14.4622 2.18 14.4922 2.42L14.8722 5.07C15.4822 5.32 16.0422 5.65 16.5622 6.05L19.0522 5.05C19.1022 5.03 19.1622 5.02 19.2222 5.02C19.4022 5.02 19.5722 5.11 19.6622 5.27L21.6622 8.73C21.7822 8.95 21.7322 9.22 21.5422 9.37L19.4322 11.02C19.4722 11.34 19.5022 11.66 19.5022 12ZM17.5022 12C17.5022 11.79 17.4922 11.58 17.4522 11.27L17.3122 10.14L18.2022 9.44L19.2722 8.59L18.5722 7.38L17.3022 7.89L16.2422 8.32L15.3322 7.62C14.9322 7.32 14.5322 7.09 14.1022 6.91L13.0422 6.48L12.8822 5.35L12.6922 4H11.3022L11.1022 5.35L10.9422 6.48L9.88221 6.91C9.47221 7.08 9.06221 7.32 8.63221 7.64L7.73221 8.32L6.69221 7.9L5.42221 7.39L4.72221 8.6L5.80221 9.44L6.69221 10.14L6.55221 11.27C6.52221 11.57 6.50221 11.8 6.50221 12C6.50221 12.2 6.52221 12.43 6.55221 12.74L6.69221 13.87L5.80221 14.57L4.72221 15.41L5.42221 16.62L6.69221 16.11L7.75221 15.68L8.66221 16.38C9.06221 16.68 9.46221 16.91 9.89221 17.09L10.9522 17.52L11.1122 18.65L11.3022 20H12.7022L12.9022 18.65L13.0622 17.52L14.1222 17.09C14.5322 16.92 14.9422 16.68 15.3722 16.36L16.2722 15.68L17.3122 16.1L18.5822 16.61L19.2822 15.4L18.2022 14.56L17.3122 13.86L17.4522 12.73C17.4822 12.43 17.5022 12.21 17.5022 12ZM12.0022 8C9.79221 8 8.00221 9.79 8.00221 12C8.00221 14.21 9.79221 16 12.0022 16C14.2122 16 16.0022 14.21 16.0022 12C16.0022 9.79 14.2122 8 12.0022 8ZM10.0022 12C10.0022 13.1 10.9022 14 12.0022 14C13.1022 14 14.0022 13.1 14.0022 12C14.0022 10.9 13.1022 10 12.0022 10C10.9022 10 10.0022 10.9 10.0022 12Z" fill="black" fill-opacity="0.54"/>
</g>
</svg>
