<svg xmlns="http://www.w3.org/2000/svg" viewBox="0 0 24 24">
  <path
    d="M6.17 3.27a10.5 10.5 0 1 1 11.66 17.46A10.5 10.5 0 0 1 6.17 3.27ZM7.5 18.75v1.04a8.92 8.92 0 0 0 9 0v-1.04a2.25 2.25 0 0 0-2.25-2.25h-4.5a2.25 2.25 0 0 0-2.25 2.25Zm9.38-2.67c.7.7 1.1 1.63 1.11 2.62a9 9 0 1 0-11.98 0A3.75 3.75 0 0 1 9.75 15h4.5c.98 0 1.93.4 2.63 1.08ZM9.92 6.64a3.75 3.75 0 1 1 4.16 6.23 3.75 3.75 0 0 1-4.16-6.23Zm.83 4.98a2.25 2.25 0 1 0 2.5-3.74 2.25 2.25 0 0 0-2.5 3.74Z"
    clip-rule="evenodd"
  />
</svg>
